<svg width="19" height="21" viewBox="0 0 19 21" fill="none" xmlns="http://www.w3.org/2000/svg">
<path d="M8.63655 20.7266C10.2006 20.7266 11.509 19.6116 11.8095 18.1357H5.46362C5.76423 19.6116 7.07262 20.7266 8.63655 20.7266Z" fill="#003274"/>
<path d="M14.6923 10.3628C14.6888 10.3628 14.6854 10.3636 14.6819 10.3636C11.3492 10.3636 8.63663 7.65182 8.63663 4.31838C8.63663 3.402 8.84742 2.53575 9.21445 1.75679C9.02437 1.73877 8.83177 1.72754 8.63663 1.72754C5.29798 1.72754 2.59138 4.43398 2.59138 7.77279V10.1805C2.59138 11.8896 1.84262 13.5029 0.529017 14.6134C0.0911477 14.9874 -0.103197 15.5833 0.0539865 16.1646C0.237104 16.8407 0.90553 17.2726 1.60685 17.2726H15.6621C16.3979 17.2726 17.0915 16.7958 17.2408 16.0747C17.3565 15.5169 17.1579 14.9598 16.7253 14.5962C15.4695 13.5435 14.7432 11.9967 14.6923 10.3628Z" fill="#003274"/>
<path d="M19.0001 4.31813C19.0001 6.70292 17.0669 8.63609 14.682 8.63609C12.2972 8.63609 10.364 6.70292 10.364 4.31813C10.364 1.93333 12.2972 0 14.682 0C17.0669 0 19.0001 1.93333 19.0001 4.31813Z" fill="#FF0000"/>
</svg>
